<svg xmlns="http://www.w3.org/2000/svg" width="256" height="256"><path fill-opacity=".016" d="M0 128.004v128.004l128.25-.254 128.25-.254.254-127.75L257.008 0H0v128.004m.485.496c0 70.4.119 99.053.265 63.672.146-35.38.146-92.98 0-128C.604 29.153.485 58.1.485 128.5" fill="#1976D2" fill-rule="evenodd"/><path fill-opacity=".299" d="M106.437 1.559C59.703 9.415 20.035 44.178 5.576 89.948c-7.438 23.545-7.427 52.54.029 76.224 12.722 40.411 43.881 71.573 84.224 84.232 9.246 2.901 23.357 5.596 29.302 5.596H123V146H56v25h41V224.135l-2.25-.685c-11.465-3.49-25.967-12.629-37.093-23.375-13.359-12.903-22.492-28.569-27.436-47.064-3.542-13.246-3.747-35.18-.453-48.285 4.577-18.204 12.829-33.172 25.668-46.554C71.546 41.38 91.18 31.423 115.069 27.93L123 26.77V0l-4.25.102c-2.338.056-7.878.711-12.313 1.457M138 14v14h2.872c1.579 0 7.097 1.072 12.261 2.382 36.068 9.149 63.836 37.384 73.083 74.311 3.139 12.536 3.139 34.078 0 46.614-4.816 19.23-14.089 35.455-27.873 48.768-10.256 9.907-23.442 18.683-32.093 21.363l-2.25.697V171h41v-25h-67v55c0 45.883.227 55 1.369 55 8.763 0 34.183-7.246 45.802-13.056 23.661-11.831 45.942-34.112 57.773-57.773 14.219-28.438 17.06-64.745 7.46-95.342-14.573-46.443-53.878-80.572-101.732-88.333-5.045-.819-9.51-1.49-9.922-1.492C138.338.002 138 6.3 138 14m12.834 30.615c-.347 6.865-.653 7.829-3.109 9.787-1.499 1.195-2.725 2.696-2.725 3.336 0 1.964 3.177 3.168 5.134 1.946 1.348-.842 2.613-.698 5.35.607 4.531 2.161 4.196 2.229 5.981-1.224.996-1.925 2.43-3.041 4.175-3.25 6.089-.726 5.537-6.695-.735-7.962-2.356-.476-4.791-2.254-7.905-5.772-2.475-2.796-4.788-5.084-5.141-5.083-.352 0-.813 3.427-1.025 7.615m-5.184 24.774c-2.595 2.136-2.867 2.974-3.042 9.374-.264 9.703-3.768 15.461-12.115 19.913-6.451 3.44-9.493 6.464-9.493 9.435 0 2.094-1.054 2.435-2.637.852-.711-.711-1.883-.716-3.729-.014-1.481.563-4.142 1.118-5.913 1.233-2.189.143-4.777 1.589-8.079 4.514-2.672 2.367-5.485 4.304-6.25 4.304-1.79 0-1.784 1.43.012 2.921 1.609 1.335 6.372.446 8.383-1.565 1.723-1.723 10.893-4.416 12.689-3.727.776.298 1.548 1.92 1.717 3.605.402 4.015 3.536 6.058 5.16 3.364.631-1.046 2.152-2.809 3.381-3.917 1.754-1.581 1.985-2.314 1.076-3.41-.955-1.15-.725-1.288 1.301-.779 1.635.41 4.69-.384 9.117-2.37 4.569-2.05 6.485-2.538 6.108-1.554-.596 1.552 2.161 2.055 3.084.562 1.264-2.047 3.773-12.891 3.655-15.804-.08-1.986 1.006-4.96 2.899-7.946 3.492-5.507 3.869-10.039 1.124-13.528-1.046-1.33-2.059-3.524-2.25-4.875-.461-3.253-2.702-3.466-6.198-.588M108 120.715c-3.546 2.446-4.802 4.366-4.93 7.535-.104 2.6 2.643 2.118 4.555-.8 1.016-1.552 2.25-2.328 3.15-1.983 3.523 1.352 5.858-4.572 2.475-6.281-1.253-.633-2.745-.198-5.25 1.529m-18.773 4.119c-1.775.841-3.227 2.067-3.227 2.725 0 1.865 2.573 3.542 4.373 2.851 1.909-.732 1.966-.432.602 3.157-1.628 4.28-.377 6.603 3.36 6.24 2.378-.231 3.092-.744 2.87-2.063-.163-.966.165-3.423.727-5.46 1.826-6.612-2.556-10.362-8.705-7.45" fill="#1976D2" fill-rule="evenodd"/><path fill-opacity=".409" d="M109 1.538C81.197 5.934 57.917 17.826 37.871 37.871 17.502 58.24 5.793 81.432 1.455 110c-4.614 30.38 2.926 63.238 20.559 89.586 6.692 10 24.193 27.57 33.986 34.121 18.421 12.321 36.505 18.82 60.75 21.829l5.25.652V145.973l-32.75.263-32.75.264-.282 11.73-.281 11.729 20.781.271 20.782.27.266 26.75c.306 30.744 1.195 28.599-9.884 23.872-9.989-4.263-23.159-13.302-31.43-21.574-39.357-39.356-39.357-103.74 0-143.096 8.946-8.947 21.762-17.491 33.272-22.184 8.281-3.376 23.958-7.228 29.526-7.255L122 27V13.5c0-15.611 1.477-14.251-13-11.962m29 12.417v12.954l3.75.643c30.59 5.246 55.064 20.753 70.762 44.835 11.006 16.884 15.426 30.69 16.206 50.613.617 15.74-.529 24.646-4.822 37.491-8.262 24.725-26.799 46.115-50.134 57.851-5.094 2.562-9.607 4.658-10.029 4.658-.421 0-.646-11.812-.5-26.25l.267-26.25 20.782-.27 20.781-.271-.281-11.729-.282-11.73h-66l-.259 54.25-.258 54.25h3.398c5.73 0 19.292-2.941 28.433-6.166 18.584-6.556 34.753-16.715 48.529-30.491C261.827 174.859 268.196 107.562 233.707 56c-6.446-9.636-24.071-27.261-33.707-33.707-9.968-6.667-20.177-11.725-30.789-15.254C159.269 3.734 146.745 1 141.542 1H138v12.955m13.436 27.795c.794 4.858-.729 9.902-4.026 13.343-1.445 1.51-2.328 3.231-1.96 3.826.853 1.38 3.835 1.396 5.204.027.738-.738 2.177-.517 4.806.736l3.752 1.79 2.182-2.736c1.199-1.505 2.866-2.736 3.702-2.736.837 0 2.338-.597 3.335-1.326C170.57 53.11 169.775 49 167.334 49c-3.248 0-8.622-3.479-11.056-7.156-3.391-5.124-5.67-5.168-4.842-.094m-5.359 27.839c-2.8 2.356-3.077 3.123-3.077 8.532 0 10.462-3.961 16.6-14.259 22.094-4.489 2.395-5.94 3.758-6.581 6.179-.655 2.477-1.312 3.069-3.241 2.921-5.65-.43-13.465 2.072-18.3 5.861-2.684 2.103-5.271 3.824-5.75 3.824-.478 0-.869.675-.869 1.5 0 2.2 5.517 1.909 8.79-.464 1.491-1.08 4.813-2.514 7.383-3.187 5.295-1.385 8.365-.012 7.486 3.349-.265 1.01.186 2.504 1.001 3.32 1.726 1.725 3.34 1.936 3.34.437 0-.575 1.154-2.2 2.565-3.611 1.41-1.41 2.324-3.19 2.031-3.954-.393-1.024.39-1.39 2.969-1.39 1.926 0 5.722-1.125 8.435-2.5 5.86-2.97 5.765-2.957 6.181-.8.66 3.429 3.79-3.483 4.94-10.909.621-4.01 2.468-10.059 4.103-13.441 3.035-6.277 3.089-8.391.33-12.85-.681-1.1-1.542-3.237-1.915-4.75-.839-3.409-1.674-3.433-5.562-.161m-38.245 51.733c-2.55 1.464-3.793 2.957-4.078 4.898-.225 1.535-.203 2.998.05 3.251.858.857 4.196-1.534 4.196-3.006 0-.949 1.019-1.465 2.893-1.465 3.234 0 4.817-2.44 3.002-4.627-1.395-1.681-1.513-1.663-6.063.949M89.25 125.22c-1.237.597-2.25 1.945-2.25 2.996 0 1.406.593 1.827 2.25 1.597 2.075-.289 2.25.076 2.25 4.687 0 4.667.167 5 2.5 5 2.161 0 2.573-.543 3.035-4 .294-2.2.851-4.51 1.236-5.132.944-1.523-2.988-6.385-5.094-6.3-.922.037-2.69.556-3.927 1.152" fill="#1976D2" fill-rule="evenodd"/><path fill-opacity=".384" d="M111.585 1.556C77.563 6.188 46.562 24.163 26.397 50.949c-34.357 45.639-34.357 108.463 0 154.102 20.922 27.792 53.379 46.085 88.353 49.797l7.25.77V147H57v23h41V225.135l-2.25-.643c-1.237-.353-5.981-2.397-10.54-4.54-21.756-10.23-37.62-25.81-48.314-47.452-7.521-15.222-10.129-26.678-10.129-44.5 0-12.427.374-15.93 2.617-24.5 9.591-36.643 37.776-64.83 73.994-73.999 5.433-1.376 11.846-2.501 14.25-2.501H122V13.5c0-7.425-.112-13.454-.25-13.397-.138.057-4.712.711-10.165 1.453m27.219 12.337l.304 12.896 4.653.698c8.724 1.308 21.602 5.606 30.379 10.139 26.335 13.602 44.843 36.829 52.491 65.874 2.263 8.596 2.633 12.036 2.633 24.5 0 12.452-.371 15.912-2.628 24.5-2.758 10.495-9.36 25.332-14.771 33.197-4.614 6.706-16.216 18.645-23.278 23.955C182.836 213.976 166.228 223 164.02 223c-.668 0-1.02-9.154-1.02-26.5V170h41v-23h-65.5v108h2.343c4.327 0 22.056-4.007 29.391-6.642 42.9-15.416 73.362-50.553 82.901-95.624 4.348-20.548 2.477-46.779-4.777-66.968-15.63-43.497-53.151-75.442-97.743-83.218-13.397-2.336-12.162-3.523-11.811 11.345M152 42.646c0 6.231-1.6 11.07-4.105 12.41-2.021 1.082-2.52 3.44-.936 4.419.528.326 1.873.022 2.989-.675 1.703-1.063 2.611-.954 5.647.681 3.555 1.915 3.642 1.916 5.011.043.767-1.049 1.394-2.262 1.394-2.696 0-.434 1.238-1.086 2.75-1.447s3.303-1.092 3.979-1.624c1.951-1.535-.225-4.406-3.898-5.141-2.133-.426-4.877-2.42-8.035-5.837L152 37.59v5.056m-6.452 27.897c-2.14 1.984-2.602 3.107-2.098 5.113 1.017 4.053-1.255 12.685-4.5 17.098-1.765 2.399-4.889 4.927-7.708 6.238-6.092 2.832-9.242 5.771-9.242 8.623 0 2.746-1.621 3.944-3.372 2.492-.875-.727-2.37-.755-4.699-.087-1.879.539-4.578.98-5.998.98-1.478 0-3.612 1.096-4.99 2.562-1.324 1.41-3.88 3.473-5.68 4.586-1.8 1.112-3.019 2.434-2.708 2.937.886 1.434 6.173 1.07 6.762-.465.579-1.508 8.771-4.62 12.163-4.62 2.774 0 4.522 1.829 4.522 4.731 0 2.963 2.894 4.21 4.23 1.823.54-.965 1.778-2.437 2.752-3.271.973-.833 1.575-2.261 1.337-3.172-.347-1.325.328-1.661 3.374-1.678 2.094-.012 6.142-1.207 8.997-2.656l5.19-2.634.335 2.178c.291 1.895.547 1.723 1.969-1.321 2.009-4.305 2.949-8.243 3.246-13.605.13-2.357 1.195-5.463 2.5-7.297 3.368-4.73 3.866-10.531 1.21-14.122-1.177-1.592-2.14-3.813-2.14-4.936 0-2.764-2.14-2.566-5.452.503m-36.581 50.571c-4.665 3.565-4.967 3.972-4.935 6.675l.031 2.711 2.607-2.967c1.434-1.632 3.557-2.982 4.719-3 1.376-.021 2.216-.772 2.414-2.156.417-2.925-1.875-3.524-4.836-1.263m-19.743 4.257c-2.947 1.457-2.433 4.129.795 4.129 2.585 0 2.612.133 1.314 6.632-.591 2.962.781 4.284 3.538 3.409 1.413-.448 2.001-1.952 2.473-6.315.542-5.019.36-5.942-1.474-7.476-2.335-1.954-3.345-2.011-6.646-.379" fill="#1976D2" fill-rule="evenodd"/></svg>