<svg xmlns="http://www.w3.org/2000/svg" width="256" height="256"><path fill-opacity=".012" d="M0 128.004v128.004l128.25-.254 128.25-.254.254-127.75L257.008 0H0v128.004m.485.496c0 70.4.119 99.053.265 63.672.146-35.38.146-92.98 0-128C.604 29.153.485 58.1.485 128.5" fill="#1976D2" fill-rule="evenodd"/><path fill-opacity=".028" d="M103.5 1.974c-25.744 5.164-47.291 16.745-66.036 35.49C18.225 56.703 6.397 79.358 1.422 106.5-.836 118.818-.079 146.103 2.823 157c10.541 39.582 33.89 68.908 68.72 86.308C85.8 250.431 106.233 256 118.11 256H123l.232-54.75.232-54.75.518 38 .518 38 6.5.24c4.507.166 6.04-.059 5-.735-.981-.638-1.072-.98-.262-.99.956-.012 1.3-8.485 1.512-37.265.229-30.94.315-27.976.513 17.5L138 256h3.042c5.032 0 17.798-2.926 29.217-6.696 18.639-6.155 35.255-16.887 50.323-32.503 17.568-18.208 29.326-40.504 33.38-63.301.685-3.85 1.649-8.034 2.142-9.297 1.113-2.854 1.197-33.203.091-33.203-.443 0-1.384-3.447-2.092-7.661-2.482-14.773-9.958-32.733-19.91-47.839-6.075-9.219-23.774-26.93-33.201-33.223-15.684-10.469-33.441-17.776-50.377-20.729C136.682-.882 138-2.166 138 13.84v13.84l7.25 1.283c19.907 3.523 37.861 12.471 52.12 25.977 41.355 39.169 41.8 105.544.973 145.173-8.363 8.117-18.94 15.492-27.904 19.456-3.023 1.337-5.708 2.431-5.968 2.431-.259 0-.471-11.475-.471-25.5V171l20.75.228 20.75.228-20.282.293-20.282.293.102 21.92c.087 18.525.323 21.837 1.527 21.375.783-.301 1.215-.884.961-1.296-.255-.411.676-1.268 2.069-1.902 1.714-.781 2.317-.805 1.864-.073-.367.595 1.179.139 3.436-1.013 2.258-1.151 4.105-2.336 4.105-2.632 0-.297-.45-.261-1 .079s-1 .382-1 .094c0-.288.954-1.034 2.121-1.659 1.711-.916 1.979-.874 1.39.215-.402.743.331.204 1.629-1.197s1.957-1.851 1.464-1c-.492.851.633-.051 2.5-2.005 1.868-1.953 2.731-2.628 1.918-1.5-.813 1.129 2.224-1.548 6.749-5.948 7.997-7.777 10.609-10.832 5.92-6.924-1.27 1.058-.482.184 1.75-1.942 2.233-2.126 3.384-3.549 2.559-3.163-.825.386-.375-.276 1-1.471s1.825-1.87 1-1.5c-.825.37-.375-.305 1-1.5s1.893-1.855 1.15-1.466c-1.088.57-1.13.297-.215-1.413.625-1.167 1.558-2.121 2.075-2.121.516 0 1.625-1.328 2.464-2.95 1.684-3.257 2.057-5.419.526-3.05-.533.825-.969 1.05-.969.5 0-1.337 1.93-4.278 1.969-3 .017.55.463.325.992-.5.53-.825.699-2.344.378-3.375-.421-1.351-.227-1.655.693-1.086.908.561 1.092.308.638-.875-.351-.915-.172-1.664.398-1.664.601 0 .753-.892.361-2.125-.466-1.468-.32-1.906.473-1.416.808.499.964-.129.526-2.125-.494-2.258-.389-2.529.521-1.334.896 1.177 1.008.747.52-2-.477-2.688-.366-3.152.481-2 .833 1.135.968.284.552-3.5-.302-2.75-.208-4.229.209-3.287.417.942.758-4.822.758-12.809 0-7.987-.327-13.483-.726-12.213-.399 1.27-.493.059-.209-2.691.398-3.844.257-4.653-.608-3.5-.882 1.176-1.003.788-.556-1.8.367-2.126.205-3.074-.456-2.666-.663.41-.783-.333-.339-2.099.515-2.054.374-2.541-.567-1.959-.928.574-1.068.191-.539-1.476.535-1.686.394-2.053-.563-1.461-.908.561-1.092.308-.638-.875.835-2.177-.212-4.836-1.574-3.994-.674.417-.823.029-.407-1.057.611-1.593-4.591-13.613-5.891-13.613-.3 0-.267.45.073 1s.382 1 .094 1c-.288 0-1.034-.954-1.659-2.121-.915-1.71-.873-1.983.215-1.413.743.389.225-.271-1.15-1.466-1.375-1.195-1.825-1.85-1-1.455s.125-.578-1.555-2.163-2.145-2.207-1.033-1.382c2.881 2.137-5.475-7.81-10.073-11.991-2.991-2.72-2.735-2.263 1.161 2.068 2.75 3.057 1.642 2.153-2.463-2.009s-7.03-6.872-6.5-6.021c.53.851-.099.401-1.397-1s-2.046-1.872-1.663-1.047c.383.825-.282.375-1.477-1s-1.855-1.893-1.466-1.15c.57 1.088.297 1.13-1.413.215-1.167-.625-2.121-1.371-2.121-1.659 0-.288.45-.246 1 .094.55.34 1 .373 1 .073 0-1.3-12.02-6.502-13.613-5.891-1.086.416-1.474.267-1.057-.407.842-1.362-1.817-2.409-3.994-1.574-1.183.454-1.436.27-.875-.638.592-.957.225-1.098-1.461-.563-1.667.529-2.05.389-1.476-.539.582-.941.095-1.082-1.959-.567-1.766.444-2.509.324-2.099-.339.405-.655-.556-.843-2.666-.521-2.676.409-2.922.315-1.3-.495 1.503-.751.756-.879-3-.512-2.75.269-4.23.148-3.29-.269.941-.417-5.049-.758-13.311-.758-8.261 0-13.981.331-12.71.736 1.317.419.16.53-2.689.257-3.682-.353-4.605-.202-3.5.574 1.115.784.634.883-1.875.387-2.417-.478-3.174-.342-2.666.479.499.808-.129.964-2.125.526-2.278-.499-2.54-.393-1.334.541s.944 1.04-1.334.541c-2.074-.455-2.633-.297-2.086.589.514.832.228 1.01-.916.571-2.177-.835-4.836.212-3.994 1.574.417.674.028.823-1.06.406C90.02 40.07 80 44.295 80 45.576c0 .298.45.264 1-.076s1-.382 1-.094c0 .288-.954 1.034-2.121 1.659-1.49.797-1.918.808-1.441.035 1.373-2.221-.721-1.01-3.717 2.15-1.695 1.788-2.716 2.575-2.269 1.75.446-.825-.485-.125-2.07 1.555s-2.432 2.327-1.882 1.438-.8.331-3 2.711-6.025 6.17-8.5 8.422c-2.475 2.252-3.807 3.707-2.961 3.234.846-.473.171.415-1.5 1.974S50.175 72.866 51 72.497c.825-.369.375.308-1 1.503-1.375 1.195-1.825 1.87-1 1.5.825-.37.54.153-.633 1.163-2.494 2.148-5.318 7.043-3.367 5.837.921-.569.936-.249.065 1.379C44.44 85.046 43.469 86 42.906 86c-.563 0-.771.409-.462.91.755 1.221-.446 4.207-1.444 3.59-1.141-.705-2.05 2.207-1.299 4.164.454 1.183.27 1.436-.638.875-.957-.592-1.098-.225-.563 1.461.499 1.573.369 2.037-.433 1.541-.808-.499-.964.129-.526 2.125.494 2.258.389 2.529-.521 1.334-.896-1.177-1.008-.747-.52 2 .476 2.681.365 3.149-.476 2-.839-1.146-.969-.555-.55 2.5.424 3.097.32 3.548-.46 2-.754-1.498-.891-.62-.546 3.5.292 3.484.173 4.584-.324 3-.463-1.475-.778 3.032-.768 11 .011 8.127.32 12.306.776 10.5.491-1.945.603-.891.319 3-.322 4.419-.176 5.473.556 4 .763-1.534.867-1.069.447 2-.419 3.055-.289 3.646.55 2.5.841-1.149.952-.681.476 2-.46 2.592-.35 3.111.424 2 .885-1.269 1.074-1.193 1.232.5.463 4.972.57 6.082.702 7.309.08.732.658.99 1.312.586.794-.491.958-.171.512.992C40.071 164.98 45.273 177 46.573 177c.3 0 .224-.52-.168-1.155-.433-.699-.276-.883.397-.467.611.377.855 1.352.542 2.167-.347.905.933 2.911 3.294 5.164 2.124 2.025 2.962 3.058 1.862 2.295-1.1-.763.568.968 3.708 3.847 3.139 2.878 8.04 7.802 10.89 10.941 2.85 3.14 4.813 5.033 4.362 4.208-.451-.825.566-.037 2.261 1.75 2.996 3.16 5.09 4.371 3.717 2.15-.477-.773-.049-.762 1.441.035 1.167.625 2.121 1.371 2.121 1.659 0 .288-.45.246-1-.094-.55-.34-1-.373-1-.073 0 1.3 12.02 6.502 13.613 5.891 1.086-.416 1.474-.267 1.057.407-.362.586-.018 1.311.765 1.612 1.204.462 1.44-2.88 1.528-21.595.057-12.178.313-22.352.57-22.608.257-.257.467 11.063.467 25.155v25.622l-3.803-1.341c-12.395-4.374-25.899-13.12-36.273-23.494-35.476-35.476-39.34-91.55-9.076-131.713 6.871-9.12 12.913-14.988 22.308-21.671 12.685-9.022 30.47-15.779 46.052-17.498l6.292-.694.278-13.75.278-13.75-5.278.084c-2.903.047-9.328.897-14.278 1.89m21.228 30.748c1.775.221 4.925.224 7 .008 2.074-.217.622-.397-3.228-.402-3.85-.004-5.548.173-3.772.394M154 46.378c0 .207.787.995 1.75 1.75 1.586 1.243 1.621 1.208.378-.378-1.307-1.666-2.128-2.195-2.128-1.372M147.158 50c0 1.375.227 1.938.504 1.25.278-.687.278-1.812 0-2.5-.277-.687-.504-.125-.504 1.25m-3.408 6.662c.688.278 1.813.278 2.5 0 .688-.277.125-.504-1.25-.504s-1.937.227-1.25.504M60.405 60.25L58.5 62.5l2.25-1.905c1.237-1.048 2.25-2.06 2.25-2.25 0-.8-.805-.209-2.595 1.905m88.408 3.433c.721.289 1.584.253 1.916-.079.332-.332-.258-.568-1.312-.525-1.165.048-1.402.285-.604.604m-7.932 13.098c-.329 1.988-.183 2.921.372 2.366.504-.504.749-1.981.544-3.282-.315-2.001-.455-1.861-.916.916M150.158 95c0 1.375.227 1.938.504 1.25.278-.687.278-1.812 0-2.5-.277-.687-.504-.125-.504 1.25m-14.594.707c-.542 1.425-.428 1.54.56.56.684-.679.991-1.486.683-1.793-.308-.308-.867.247-1.243 1.233m-20 9c-.542 1.425-.428 1.54.56.56.684-.679.991-1.486.683-1.793-.308-.308-.867.247-1.243 1.233m9.515.876c.048 1.165.285 1.402.604.605.289-.722.253-1.585-.079-1.917-.332-.332-.568.258-.525 1.312m-10.81 2.11c.973.254 2.323.237 3-.037.677-.274-.119-.481-1.769-.461-1.65.02-2.204.244-1.231.498M.407 128c0 9.075.152 12.787.337 8.25.185-4.537.185-11.963 0-16.5-.185-4.537-.337-.825-.337 8.25m111.751-5c0 1.375.227 1.938.504 1.25.278-.687.278-1.812 0-2.5-.277-.687-.504-.125-.504 1.25m111.152 4.5c.005 3.3.192 4.529.415 2.732.222-1.797.218-4.497-.01-6-.229-1.503-.411-.032-.405 3.268m-129.851-1.433c-.363.586-.445 1.281-.183 1.543s.743-.218 1.069-1.067c.676-1.762.1-2.072-.886-.476M109.158 131c0 1.375.227 1.938.504 1.25.278-.687.278-1.812 0-2.5-.277-.687-.504-.125-.504 1.25m-36.972 14.748c9.177.165 24.477.165 34 .001 9.523-.165 2.014-.3-16.686-.3s-26.491.134-17.314.299m82 0c9.177.165 24.477.165 34 .001 9.523-.165 2.014-.3-16.686-.3s-26.491.134-17.314.299M55.382 158.5c.002 6.6.164 9.17.359 5.711.196-3.459.195-8.859-.003-12s-.358-.311-.356 6.289m10.922 13.247c5.943.177 15.393.176 21-.002 5.608-.178.746-.323-10.804-.322-11.55.001-16.138.147-10.196.324M60.5 195c3.82 3.85 7.171 7 7.446 7 .275 0-2.626-3.15-6.446-7s-7.171-7-7.446-7c-.275 0 2.626 3.15 6.446 7" fill="#1976D2" fill-rule="evenodd"/><path fill-opacity=".265" d="M107.5 1.573C89.253 4.371 67.389 13.62 52.125 24.998 2.408 62.057-13.987 128.392 12.939 183.54c14.092 28.862 35.794 49.717 64.986 62.448 9.232 4.026 27.072 8.581 37.325 9.53l7.75.717V146H56v25h42v53.217l-2.75-.663c-4.827-1.163-20.56-9.255-26.25-13.502-19.245-14.36-32.735-34.262-39.231-57.877-3.072-11.166-3.06-37.224.022-48.438 11.38-41.4 45.681-71.463 86.959-76.214l6.25-.719V0l-3.25.097c-1.787.053-7.3.718-12.25 1.476m30.722 12.169l.278 13.625 7.591 1.281c19.145 3.23 38.573 13.294 52.739 27.321 12.755 12.629 21.259 27.073 26.807 45.531 2.46 8.186 2.712 10.538 2.784 26 .095 20.512-1.543 27.967-9.89 45-6.743 13.76-15.942 25.446-26.782 34.024C183.96 212.686 167.767 222 164.841 222c-1.086.001-1.341-4.841-1.341-25.497v-25.497l20.75-.003L205 171v-25h-67v110.176l4.25-.646c27.533-4.185 45.117-11.492 65.39-27.172 22.433-17.35 38.112-42.118 45.488-71.858 2.567-10.35 3.57-33.75 1.962-45.781-5.558-41.605-33.687-80.269-71.331-98.048-14.045-6.633-24.43-9.606-42.037-12.033l-3.778-.521.278 13.625m8.528 29.65c-2.143 1.627-2.299 3.033-.25 2.246 1.663-.638 1.942 2.058.878 8.489-.485 2.935-.961 3.533-2.489 3.134-1.291-.338-1.889.031-1.889 1.163 0 .911-.981 2.983-2.179 4.604s-1.873 3.253-1.5 3.626c.373.374.679.128.679-.546s.45-.948 1-.608c.55.34 1 1.716 1 3.059 0 2.702 1.462 3.284 2.362.941.316-.825 1.264-1.5 2.107-1.5 2.211 0 1.883-1.754-.469-2.5-1.1-.349-1.998-.942-1.996-1.317.009-1.341 7.378-1.037 10.197.421 2.814 1.455 2.894 1.423 3.95-1.607.742-2.128 1.9-3.258 3.714-3.622 1.449-.291 3.468-1.14 4.486-1.886 1.8-1.32 1.8-1.409 0-3.29-1.018-1.063-3.454-2.45-5.413-3.082-1.96-.631-5.313-2.941-7.453-5.133-4.348-4.452-4.306-4.436-6.735-2.592m-3.572 29.28c-1.302 2.443-1.646 6.433-.736 8.537.968 2.235-1.067 8.457-4.091 12.507-1.97 2.639-2.799 3.068-4.626 2.393-2.953-1.091-4.725-.366-4.725 1.933 0 1.032-.787 3.439-1.75 5.348-1.639 3.253-2.142 3.516-7.951 4.153-5.693.624-6.595 1.072-11 5.468-2.64 2.633-5.586 5.825-6.549 7.092-.963 1.267-1.75 1.762-1.75 1.1 0-.661-.45-1.203-1-1.203s-.888.346-.75.769c.137.423-.763 1.858-2 3.189-1.237 1.33-2.25 2.784-2.25 3.231 0 1.409 2.037.877 2.638-.689.844-2.199 1.886-1.84 3.231 1.112.936 2.055.917 2.948-.089 4.187-1.088 1.339-1.018 1.477.47.92 1.131-.424 1.75-.175 1.75.705 0 2.343 3.223 2.797 5.276.744 1.422-1.421 1.946-3.471 2.051-8.008.127-5.534.333-6.083 2.229-5.926 1.608.133 1.988.701 1.65 2.469-.516 2.698 1.263 3.067 2.67.555.536-.959 1.781-1.746 2.767-1.75.985-.005 2.287-.999 2.893-2.21l1.101-2.203 1.775 2.073 1.775 2.073 2.906-3.182c1.599-1.75 2.907-3.605 2.907-4.121 0-.516 1.313-.938 2.917-.938 1.604 0 3.145-.562 3.424-1.25.365-.9.738-.938 1.333-.136.5.674 1.615.8 2.826.32 1.1-.436 1.438-.825.75-.864-.687-.038-1.25-.529-1.25-1.089 0-.575 1.041-.758 2.391-.419 1.396.35 2.701.099 3.136-.605.763-1.236 1.624-8.725 1.719-14.957.029-1.925.333-3.725.674-4 1.223-.985 3.08-6.14 3.08-8.551 0-2.719-3.055-8.849-4.548-9.125-.524-.097-1.705-.469-2.625-.827-1.076-.42-2.022 0-2.649 1.175M136 92.059c0 1.132.45 1.781 1 1.441.55-.34 1-1.266 1-2.059 0-.793-.45-1.441-1-1.441s-1 .927-1 2.059m-23.02 12.465c-1.729 2.083-.454 3.093 1.472 1.166.852-.851 1.548-1.804 1.548-2.119 0-1.11-1.772-.551-3.02.953M143 115c0 .55.477 1 1.059 1s.781-.45.441-1-.816-1-1.059-1-.441.45-.441 1m-46.469 1.293c-.428.986-.497 2.074-.155 2.417 1.016 1.015 1.835-.411 1.367-2.382-.414-1.747-.468-1.748-1.212-.035m7.618 22.311c-.743.84-1.091 1.787-.774 2.104.695.696 3.625-1.592 3.625-2.83 0-1.327-1.337-.986-2.851.726" fill="#1976D2" fill-rule="evenodd"/><path fill-opacity=".506" d="M117 .695C66.339 6.12 24.582 38.603 7.641 85.766c-9.335 25.989-9.34 58.367-.013 84.468 11.376 31.837 36.454 59.706 65.962 73.303 13.351 6.152 25.313 9.379 44.16 11.915l4.25.572V147H57v23h41V225.135l-2.25-.643c-1.237-.353-5.943-2.378-10.456-4.5-29.633-13.93-50.068-39.949-56.707-72.2-2.065-10.03-2.074-29.52-.018-39.473 3.53-17.087 11.048-32.667 22.112-45.819 15.91-18.915 41.429-32.714 64.954-35.124l6.365-.652V13.362c0-7.349-.338-13.29-.75-13.202-.412.088-2.325.329-4.25.535m21.5 13.257v12.952l7 1.145c24.401 3.993 48.293 18.595 63.732 38.951 6.91 9.11 14.348 24.707 17.407 36.5 2.132 8.218 2.61 12.406 2.684 23.5.05 7.478-.477 16.176-1.181 19.5-6.929 32.726-26.35 58.058-55.867 72.874-3.974 1.994-7.686 3.626-8.25 3.626-.674 0-1.025-9.07-1.025-26.5V170h41.5v-23h-66.792l.396 53.998.396 53.998 2.64.002c1.451.001 6.278-.688 10.727-1.532 43.897-8.327 80.663-39.51 96.169-81.564 5.195-14.089 7.316-26.59 7.366-43.402.103-35.416-12.037-65.11-36.852-90.135-18.985-19.145-40.847-30.74-67.484-35.793C137.345-.031 138.5-1.077 138.5 13.952m9.668 34.298c.052 9.488-.014 9.75-2.435 9.75-2.833 0-5.561 5.297-3.813 7.404.613.738.834 2.075.49 2.969-.345.899-.128 1.627.483 1.627.609 0 1.107-.45 1.107-1s.675-1 1.5-1c2.175 0 1.84-1.51-.75-3.386-2.11-1.529-2.126-1.62-.25-1.468 1.1.089 2.747-.165 3.66-.565.955-.418 3.058-.003 4.956.979 1.902.984 3.435 1.286 3.626.714.842-2.526 3.239-4.667 6.354-5.674 4.919-1.59 4.214-3.707-2.283-6.857-3.128-1.517-6.646-4.105-7.818-5.75-3.299-4.632-4.861-3.902-4.827 2.257m-4.928 26.932c-.549 2.618-.541 4.796.02 5.532 1.312 1.721-1.69 10.034-5.115 14.163-2.478 2.988-3.054 3.242-4.994 2.204-2.331-1.248-4.588-.597-3.581 1.032.331.536-.06 1.986-.87 3.223-.81 1.236-1.643 3.129-1.85 4.206-.266 1.382-1.256 1.998-3.364 2.092-8.087.364-10.939 1.616-16.236 7.128-2.888 3.005-5.25 5.81-5.25 6.234 0 .424-.921 1.011-2.046 1.306l-2.045.535 2.045 3.817c1.125 2.099 2.046 4.836 2.046 6.081 0 2.519 3.062 3.18 4.702 1.015 1.823-2.405 3.588-10.153 2.403-10.548-.608-.203-1.105-1.006-1.105-1.785 0-.942 1.128-1.417 3.361-1.417 3.093 0 3.331.22 2.979 2.75-.374 2.685-.358 2.694.649.386.712-1.633 1.614-2.211 2.917-1.871 1.274.333 2.298-.278 3.159-1.886 1.467-2.741 2.479-3.011 3.297-.879.883 2.301 3.188 1.784 4.456-1 .627-1.375 1.689-2.5 2.361-2.5.95 0 .954-.267.021-1.2-1.863-1.863-1.414-2.985.734-1.835 2.652 1.419 3.651 1.307 5.585-.627 1.316-1.316 1.829-1.392 2.462-.368.589.952.979.731 1.477-.838.758-2.387 1.616-2.658 3.249-1.025 1.864 1.864 3.341-2.436 3.899-11.356.283-4.514.872-8.442 1.309-8.729.437-.287 1.336-2.182 1.997-4.21 1.044-3.202.936-4.258-.818-8-1.112-2.372-2.037-3.964-2.057-3.539-.021.425-1.129.057-2.465-.818-2.414-1.582-2.433-1.567-3.332 2.727M136 92.059c0 .582.45.781 1 .441s1-.816 1-1.059-.45-.441-1-.441-1 .477-1 1.059m-22.436 12.648c-.542 1.425-.428 1.54.56.56.684-.679.991-1.486.683-1.793-.308-.308-.867.247-1.243 1.233m6.579 9.2c-1.006.625-1.053 1.03-.183 1.568 1.372.848 2.402.097 1.894-1.38-.208-.606-.914-.683-1.711-.188m-24.519 11.632c-.965 2.514-.681 3.163.498 1.136.584-1.004.851-2.036.593-2.293-.257-.258-.749.263-1.091 1.157" fill="#1976D2" fill-rule="evenodd"/></svg>