<svg xmlns="http://www.w3.org/2000/svg" width="256" height="256"><path fill-opacity=".012" d="M0 128.004v128.004l128.25-.254 128.25-.254.254-127.75L257.008 0H0v128.004m.485.496c0 70.4.119 99.053.265 63.672.146-35.38.146-92.98 0-128C.604 29.153.485 58.1.485 128.5" fill="#1976D2" fill-rule="evenodd"/><path fill-opacity=".028" d="M103.5 6.033C35.756 20.275-7.423 86.451 7.112 153.755c2.546 11.789 4.825 18.369 9.81 28.33 11.919 23.813 30.579 43.009 53.415 54.949 15.444 8.075 33.112 13.272 48.163 14.168l5 .298.214-15.5c.118-8.525.231-16.062.25-16.75.039-1.36 4.75-1.657 9.911-.625l3.125.625v32.037l6.75-.638c24.384-2.303 52.96-16.413 72.193-35.646C239.612 191.334 252 161.271 252 127.5c0-25.303-6.556-47.2-20.51-68.5-19.491-29.753-53.234-50.609-88.27-54.557l-6.28-.708.28 13.341.28 13.342 8 1.612c40.519 8.166 69.521 36.561 78.105 76.47 1.955 9.086 1.958 28.877.006 38.052-5.542 26.053-20.564 48.353-41.893 62.187-5.738 3.722-16.651 9.261-18.247 9.261-.259 0-.368-10.687-.242-23.75l.228-23.75.292 20.75c.16 11.412.522 20.75.805 20.75 1.428 0 10.446-5.164 10.446-5.982 0-.521.954-1.458 2.121-2.083 1.711-.916 1.979-.874 1.39.215-.402.743.331.204 1.629-1.197s1.957-1.851 1.464-1c-.492.851.633-.051 2.5-2.005 1.868-1.953 2.738-2.628 1.935-1.5-.804 1.129 2.233-1.537 6.75-5.925 7.941-7.714 10.656-10.909 5.902-6.947-1.27 1.058-.652.349 1.372-1.576 4.336-4.123 8.3-9.882 5.937-8.625-.825.439-.534-.028.647-1.038 3.006-2.573 6.471-9.865 5.674-11.943-.419-1.092-.271-1.481.404-1.064 1.362.842 2.409-1.817 1.574-3.994-.465-1.21-.277-1.44.689-.844.995.616 1.186.282.763-1.337-.358-1.369-.18-1.92.488-1.507.696.43.821-.275.367-2.083-.486-1.934-.351-2.525.461-2.024.821.508.957-.249.479-2.666-.512-2.588-.41-3.025.435-1.875.833 1.135.968.284.552-3.5-.302-2.75-.208-4.229.209-3.287.417.942.758-3.853.758-10.655s-.364-11.847-.809-11.213c-.445.635-.531-.87-.191-3.345.473-3.445.356-4.148-.502-3-.867 1.162-.969.74-.452-1.875.508-2.569.368-3.19-.585-2.601-.941.582-1.082.095-.567-1.959.486-1.934.351-2.525-.461-2.024-.802.496-.932.032-.433-1.541.519-1.635.382-2.045-.5-1.5-.882.545-1.019.135-.5-1.5.535-1.686.394-2.053-.563-1.461-.91.562-1.092.307-.634-.887.7-1.823-1.165-6.855-2.284-6.163-.379.234-1.446-1.162-2.371-3.101-.925-1.94-1.187-3.221-.582-2.847 2.413 1.491-2.628-6.289-6.468-9.983-2.254-2.168-3.183-3.293-2.064-2.5 1.119.793.029-.393-2.423-2.635-2.451-2.243-6.467-6.293-8.924-9-2.457-2.708-4.067-4.23-3.577-3.384.489.846-.235.379-1.61-1.039s-2.08-1.885-1.566-1.039c.513.846-.474.076-2.194-1.711-3.21-3.336-4.847-4.215-3.725-2 .348.688-.007.469-.79-.484-.782-.954-1.716-1.442-2.074-1.084-.358.358-.651.138-.651-.49 0-1.404-5.724-4.481-6.939-3.73-1.341.829-4.134-.534-3.43-1.674.389-.629-.218-.736-1.631-.288s-2.02.341-1.631-.288c.872-1.411-2.026-2.319-5.198-1.63-2.146.466-2.376.355-1.171-.562 1.177-.896.747-1.008-2-.52-2.592.46-3.111.35-2-.424 1.831-1.276 2.876-1.199-19.31-1.414-9.246-.089-15.771.165-14.5.564 1.31.412.146.528-2.69.269-3.753-.342-4.501-.209-3 .535 1.611.799 1.319.906-1.5.553-1.925-.241-4.4-.052-5.5.419-1.392.597-1.544.9-.5.998 1.045.098.893.401-.5 1-2.848 1.224-4.267 1.162-2.5-.11 1.248-.897 1.192-.979-.332-.484-1.007.327-2.046.594-2.309.594-.262 0-.152.526.246 1.17.486.787.178.961-.941.531-1.957-.751-4.869.158-4.164 1.299.66 1.068-2.41 2.174-3.745 1.349-.585-.362-.784-.204-.441.35.343.555-.516 1.528-1.909 2.162-1.483.676-2.274.737-1.91.147 1.218-1.97-.631-.966-3.206 1.742-1.439 1.513-2.268 2.075-1.843 1.25.426-.825-.288-.354-1.586 1.047-1.298 1.401-1.91 1.86-1.36 1.019 1.805-2.758-6.872 4.645-13 11.091-3.3 3.471-4.622 5.194-2.938 3.827 1.685-1.366 1.01-.49-1.5 1.947-2.509 2.437-3.696 3.787-2.637 3 1.883-1.4 1.886-1.372.135 1.319-1.808 2.777-3.215 3.81-2.045 1.5.348-.687-.109-.35-1.017.75-2.337 2.832-4.878 7.853-3.564 7.041.605-.374.343.907-.582 2.847-.925 1.939-2.019 3.318-2.432 3.063-1.129-.698-4.249 8.208-3.372 9.627.519.839.347.975-.539.427-1-.617-1.142-.171-.615 1.93.464 1.847.336 2.516-.394 2.065-.726-.449-.876.262-.459 2.166.498 2.272.392 2.537-.535 1.334-.908-1.178-1.024-.643-.544 2.5.452 2.952.336 3.607-.44 2.5-.763-1.087-.921.429-.574 5.5.328 4.785.212 6.051-.366 4-.618-2.195-.842-.584-.832 6 .01 6.886.206 8.178.834 5.5.592-2.527.701-1.553.392 3.5-.311 5.079-.14 6.588.622 5.5.775-1.106.884-.488.413 2.348-.446 2.688-.306 3.643.465 3.167.759-.469.89.171.418 2.05-.515 2.054-.374 2.541.567 1.959.928-.574 1.068-.191.539 1.476-.519 1.635-.382 2.045.5 1.5.882-.545 1.019-.135.5 1.5-.519 1.635-.382 2.045.5 1.5.882-.545 1.019-.135.5 1.5-.535 1.686-.394 2.053.563 1.461.916-.566 1.09-.303.616.933-.797 2.078 2.668 9.37 5.674 11.943 1.181 1.01 1.585 1.546.897 1.191-2.11-1.09-1.393.432 1.5 3.183 1.513 1.439 2.075 2.268 1.25 1.843-.825-.426-.354.288 1.047 1.586 1.401 1.298 1.851 1.927 1 1.397s1.859 2.395 6.021 6.5 5.264 5.438 2.448 2.963c-4.455-3.916-4.334-3.72.932 1.504 6.349 6.299 14.361 12.563 11.552 9.032-1.462-1.837-1.43-1.84 1.25-.096 2.499 1.626 4.102 3.514 1.75 2.06-.55-.34-1-.382-1-.094 0 .288.954 1.034 2.121 1.659 1.616.865 1.947.853 1.39-.048-.429-.693.557-.516 2.379.426 1.71.885 3.11 1.848 3.11 2.142 0 .293-.562.248-1.25-.1-.687-.348-.376.075.691.941 1.068.866 2.418 1.567 3 1.559.583-.009.384-.452-.441-.985-2.062-1.332-.634-1.246 2.422.146 1.383.631 2.286 1.517 2.006 1.971-.281.453.634 1.111 2.031 1.462 1.977.496 2.541 1.27 2.541 3.485v2.847l-3.803-1.341c-24.043-8.483-46.345-30.222-56.123-54.707-5.313-13.303-6.483-19.862-6.488-36.363-.005-17.922 1.907-26.755 8.973-41.444 5.889-12.244 11.396-19.86 20.866-28.854C76.891 42.51 96.009 33.507 116.5 31.266l7-.766.279-13.25.279-13.25-5.779.07c-3.178.039-9.829.922-14.779 1.963m19.75 29.702c2.612.206 6.887.206 9.5 0 2.613-.206.475-.375-4.75-.375s-7.362.169-4.75.375m18.5 1.927c.688.278 1.813.278 2.5 0 .688-.277.125-.504-1.25-.504s-1.937.227-1.25.504M153 48.378c0 .207.787.995 1.75 1.75 1.586 1.243 1.621 1.208.378-.378-1.307-1.666-2.128-2.195-2.128-1.372M67.924 58.75L65.5 61.5l2.75-2.424C70.82 56.81 71.459 56 70.674 56c-.179 0-1.416 1.237-2.75 2.75m125.034 3.5c2.452 2.612 4.59 4.75 4.75 4.75.751 0-.043-.898-4.458-5.042L188.5 57.5l4.458 4.75m-48.451 8.739c-.35.566.051.734.941.393 1.732-.665 2.049-1.382.611-1.382-.518 0-1.216.445-1.552.989m7.057 7.304c.376.986.935 1.541 1.243 1.233.308-.307.001-1.114-.683-1.793-.988-.98-1.102-.865-.56.56m-.485 10.29c.048 1.165.285 1.402.604.605.289-.722.253-1.585-.079-1.917-.332-.332-.568.258-.525 1.312M138 92.059c0 .582.45.781 1 .441s1-.816 1-1.059-.45-.441-1-.441-1 .477-1 1.059m11.079.524c.048 1.165.285 1.402.604.605.289-.722.253-1.585-.079-1.917-.332-.332-.568.258-.525 1.312m-13.207 3.167c-1.243 1.586-1.208 1.621.378.378.963-.755 1.75-1.543 1.75-1.75 0-.823-.821-.294-2.128 1.372m-7.793 2.833c.048 1.165.285 1.402.604.605.289-.722.253-1.585-.079-1.917-.332-.332-.568.258-.525 1.312m20 3c.048 1.165.285 1.402.604.605.289-.722.253-1.585-.079-1.917-.332-.332-.568.258-.525 1.312m-33.637 5.511c-.308.498.592.906 1.999.906 3.064 0 3.312-.57.56-1.289-1.099-.288-2.251-.115-2.559.383m-4.037 3.156l-1.905 2.25 2.25-1.905c1.237-1.048 2.25-2.06 2.25-2.25 0-.8-.805-.209-2.595 1.905m-14.326 7.333c.048 1.165.285 1.402.604.605.289-.722.253-1.585-.079-1.917-.332-.332-.568.258-.525 1.312M100 127.941c0 .518.445 1.216.989 1.552.566.35.734-.051.393-.941-.665-1.732-1.382-2.049-1.382-.611m10.195 1.559c.02 1.65.244 2.204.498 1.231.254-.973.237-2.323-.037-3-.274-.677-.481.119-.461 1.769m-5.631 6.793c.376.986.935 1.541 1.243 1.233.308-.307.001-1.114-.683-1.793-.988-.98-1.102-.865-.56.56m-29.814 8.455c8.937.166 23.562.166 32.5 0 8.938-.166 1.625-.301-16.25-.301s-25.187.135-16.25.301m79 0c8.938.166 23.563.166 32.5 0 8.938-.166 1.625-.301-16.25-.301s-25.187.135-16.25.301M203.378 157c0 6.325.163 8.912.361 5.75.198-3.162.198-8.338 0-11.5-.198-3.162-.361-.575-.361 5.75M68.803 169.746c5.667.179 14.667.178 20-.001 5.333-.18.697-.326-10.303-.325-11 .001-15.364.148-9.697.326m104 0c5.667.179 14.667.178 20-.001 5.333-.18.697-.326-10.303-.325-11 .001-15.364.148-9.697.326M71 198.378c0 .207.787.995 1.75 1.75 1.586 1.243 1.621 1.208.378-.378-1.307-1.666-2.128-2.195-2.128-1.372m55.762 21.329c1.244.239 3.044.23 4-.02s-.062-.446-2.262-.435c-2.2.011-2.982.216-1.738.455" fill="#1976D2" fill-rule="evenodd"/><path fill-opacity=".359" d="M107.785 5.551c-31.753 4.944-63.58 25.394-81.712 52.502C11.373 80.029 4.762 101.763 4.798 128c.06 43.867 22.815 83.545 60.908 106.202 14.296 8.504 33.859 14.95 49.738 16.389l7.556.685V145H59v24h40V220.971l-5.02-1.979c-24.671-9.724-42.642-26.448-54.037-50.286-5.868-12.275-8.078-21.91-8.648-37.706-.398-11.008-.117-15.291 1.519-23.202C39.891 73.586 64.33 46.129 97.5 35.126c4.95-1.642 12.713-3.545 17.25-4.229l8.25-1.243V4l-3.25.097c-1.787.053-7.172.707-11.965 1.454m30.436 11.692l.279 13.126 7 1.198c19.601 3.357 38.756 13.652 52.854 28.408 15.602 16.331 24.114 34.541 26.752 57.235 4.167 35.849-13.221 72.384-43.888 92.219-6.142 3.972-17.108 9.571-18.747 9.571-.259 0-.471-11.25-.471-25v-25h40v-24h-64V251.069l5.25-.661c10.034-1.264 27.61-6.246 36.145-10.246 38.351-17.972 64.9-53.164 71.233-94.426 1.965-12.803 1.281-32.457-1.566-45.024-10.741-47.404-49.46-85.378-96.001-94.153-4.159-.784-9.261-1.655-11.34-1.934l-3.778-.509.278 13.127M147.609 45c-.291.825-.506 3.3-.479 5.5.09 7.231-.558 9.037-3.112 8.663-1.714-.251-2.151.049-1.718 1.177.32.833-.019 2.011-.751 2.62-1.778 1.475-2.673 5.034-1.196 4.756.631-.119 1.149.647 1.151 1.702.003 1.055.565 2.105 1.25 2.333.685.229 1.246-.072 1.246-.668 0-.596.675-1.083 1.5-1.083 2.181 0 1.837-1.635-.75-3.566-1.762-1.316-1.843-1.541-.373-1.04 1.032.352 2.492.13 3.245-.495 1.039-.862 1.962-.746 3.838.483 3.551 2.327 4.951 2.016 6.234-1.382.798-2.113 1.8-3 3.39-3 1.242 0 3.045-.712 4.006-1.581 1.66-1.503 1.652-1.677-.171-3.5-1.056-1.056-2.391-1.919-2.969-1.919-2.194 0-7.119-3.213-10.4-6.786-2.572-2.8-3.542-3.345-3.941-2.214m-4.478 28.833c-1.546 3.033-2.106 8.009-.945 8.396 1.553.517-1.601 9.465-4.654 13.201-2.026 2.48-2.633 2.731-3.95 1.638-1.831-1.52-4.582-.744-4.582 1.291 0 .783-.787 3.159-1.75 5.282-1.319 2.91-2.365 3.886-4.25 3.968-8.257.361-9.821 1.067-15.487 6.995-3.102 3.246-6.327 5.754-7.175 5.579-.846-.174-1.292.083-.99.572.302.488-.327 1.639-1.399 2.557-1.072.918-1.939 2.46-1.927 3.428.018 1.435.384 1.298 1.978-.74 1.585-2.026 1.96-2.168 1.978-.75.012.963.432 1.75.934 1.75s.79 1.112.641 2.472c-.15 1.36.064 2.265.474 2.011.41-.253.98.434 1.266 1.528.286 1.094 1.227 1.989 2.09 1.989 2.57 0 4.842-4.617 4.924-10.001.062-4.129.39-4.999 1.884-4.999 1.263 0 1.809.755 1.809 2.5 0 3.053 1.557 3.301 2.324.37.354-1.356 1.089-1.925 2.022-1.567.807.309 2.263-.318 3.236-1.394 1.208-1.334 2.096-1.631 2.794-.933 1.78 1.78 3.295 1.128 5.745-2.469 1.745-2.562 3.112-3.495 5.129-3.5 1.512-.004 2.75-.547 2.75-1.207 0-.887.293-.907 1.122-.078 1.483 1.483 3.901.5 3.208-1.305-.299-.779-.083-1.417.48-1.417s1.208.553 1.433 1.23c.241.722 1.162.082 2.231-1.551 1.178-1.797 1.938-5.148 2.151-9.479.181-3.685.734-7.6 1.228-8.7 3.081-6.859 3.168-7.519 1.489-11.29-.908-2.04-1.611-3.96-1.561-4.265.049-.306-1.236-1.056-2.855-1.667-2.467-.931-3.083-.841-3.795.555M136 92.559c0 .857.45 1.281 1 .941.55-.34 1-1.041 1-1.559s-.45-.941-1-.941-1 .702-1 1.559m-22.417 12.084c-.837 2.182.275 3.196 1.456 1.328 1.183-1.87 1.208-2.971.068-2.971-.491 0-1.177.739-1.524 1.643m-16.052 11.65c-.428.986-.497 2.074-.155 2.417 1.016 1.015 1.835-.411 1.367-2.382-.414-1.747-.468-1.748-1.212-.035m8.042 21.228c-2.186 1.654-1.693 2.846.784 1.896.904-.347 1.643-1.258 1.643-2.024 0-1.692-.023-1.69-2.427.128" fill="#1976D2" fill-rule="evenodd"/><path fill-opacity=".433" d="M117 4.703C87.783 7.762 61.535 20.269 40.977 40.929 21.753 60.249 10.631 82.502 6.455 110c-5.954 39.205 8.213 79.725 37.511 107.286 20.131 18.937 44.381 29.845 73.784 33.186l5.25.597V146H59v22h40V221.135l-2.25-.643c-4.211-1.202-18.752-8.398-23.509-11.632-6.848-4.656-19.745-17.369-24.863-24.508-6.104-8.513-12.915-23.317-15.366-33.396-8.22-33.801 1.894-68.989 26.786-93.191 16.196-15.748 34.954-24.807 57.084-27.572l5.618-.701V17.079c0-7.498-.396-12.478-1-12.577-.55-.091-2.575 0-4.5.201m21 12.556v12.536l6.476 1.127c32.052 5.582 58.781 26.01 72.59 55.477 7.122 15.198 8.442 21.753 8.377 41.601-.053 16.174-.267 18.182-2.817 26.5-6.018 19.629-17.764 37.034-33.549 49.715-7.553 6.066-22.804 14.785-25.864 14.785-.919 0-1.213-6.185-1.213-25.5V168h40v-22h-64v104h2.89c1.589 0 6.567-.698 11.063-1.551 45.9-8.707 83.269-43.957 95.683-90.258 3.506-13.079 4.442-38.082 1.935-51.691-4.779-25.936-16.099-47.721-34.222-65.854-18.883-18.894-46.898-32.795-71.099-35.28L138 4.724v12.535M147.5 46c-.34.55-.319 1.484.047 2.076.365.591.354 3.559-.025 6.594-.599 4.791-.943 5.453-2.606 5.018-1.335-.349-1.916.016-1.916 1.206 0 .938-.46 2.166-1.021 2.727-.619.619-.718 2.44-.25 4.62l.771 3.598 2.291-1.863c2.277-1.852 2.279-1.868.25-2.954-1.123-.601-2.041-1.437-2.041-1.859 0-1.321 7.332-1.043 10.089.383 2.445 1.264 2.712 1.186 3.75-1.092.636-1.396 2.829-3.138 5.092-4.043 3.497-1.399 3.835-1.813 2.817-3.443-.636-1.019-3.098-2.594-5.47-3.5-2.448-.935-5.437-3.121-6.914-5.057-2.707-3.55-3.82-4.101-4.864-2.411m-4.358 28.78c-.493.946-.695 3.875-.449 6.51.327 3.506-.111 5.941-1.632 9.084-2.183 4.509-7.061 9.857-7.061 7.741 0-.678-.412-.979-.915-.668-.503.311-1.125 0-1.383-.691-.295-.788-.718-.511-1.137.744-.367 1.1-1.319 3.274-2.116 4.831-.797 1.557-1.449 3.465-1.449 4.239 0 .81-.955 1.383-2.25 1.35-7.638-.195-11.22 1.284-16.5 6.812-2.888 3.023-5.25 5.895-5.25 6.382 0 .487-.9.886-2 .886-2.341 0-2.59 1.265-.578 2.935.782.649 1.715 2.919 2.074 5.044.36 2.125 1.352 4.132 2.206 4.46 1.779.683 4.219-2.036 4.266-4.755.018-.998.528-2.743 1.135-3.877.828-1.546.797-2.251-.122-2.819-2.026-1.252-.504-3.485 2.41-3.535 2.35-.041 2.645.268 2.147 2.25-.318 1.27-.121 2.297.443 2.297.56 0 1.019-.675 1.019-1.5 0-.933.944-1.5 2.5-1.5 1.375 0 2.507-.338 2.515-.75.009-.412.431-1.407.939-2.21.798-1.262 1.177-1.231 2.785.224 1.762 1.594 2 1.525 4.469-1.288 1.434-1.634 2.199-3.224 1.7-3.533-1.86-1.15-.912-2.516 1.026-1.478 2.652 1.419 3.651 1.307 5.585-.627 1.275-1.275 1.842-1.372 2.433-.416.536.867.95.561 1.359-1.002.504-1.93.814-2.061 2.181-.927 1.103.915 1.913 1.002 2.633.282 1.075-1.075 2.041-8.955 1.905-15.525-.043-2.062.311-3.75.786-3.75.475 0 1.437-1.737 2.138-3.859 1.093-3.313 1.038-4.356-.389-7.362-2.079-4.382-6.096-6.546-7.423-3.999m-7.063 17.803c.048 1.165.285 1.402.604.605.289-.722.253-1.585-.079-1.917-.332-.332-.568.258-.525 1.312m-15.62 21.484c-.363.586-.419 1.306-.126 1.6.717.716 2.667-.546 2.667-1.726 0-1.278-1.726-1.193-2.541.126m-23.895 11.64c-.542 1.425-.428 1.54.56.56.684-.679.991-1.486.683-1.793-.308-.308-.867.247-1.243 1.233" fill="#1976D2" fill-rule="evenodd"/></svg>